<svg width="51" height="50" viewBox="0 0 51 50" fill="none" xmlns="http://www.w3.org/2000/svg">
<path d="M50.3693 7.14287V11.6071C50.3693 15.5413 39.1714 18.75 25.3693 18.75C11.5672 18.75 0.369293 15.5413 0.369293 11.6071V7.14287C0.369293 3.20869 11.5672 0 25.3693 0C39.1714 0 50.3693 3.20869 50.3693 7.14287ZM50.3693 17.1875V27.2321C50.3693 31.1663 39.1714 34.375 25.3693 34.375C11.5672 34.375 0.369293 31.1663 0.369293 27.2321V17.1875C5.74039 20.4241 15.5711 21.9309 25.3693 21.9309C35.1675 21.9309 44.9981 20.4241 50.3693 17.1875ZM50.3693 32.8125V42.8571C50.3693 46.7913 39.1714 50 25.3693 50C11.5672 50 0.369293 46.7913 0.369293 42.8571V32.8125C5.74039 36.0491 15.5711 37.5559 25.3693 37.5559C35.1675 37.5559 44.9981 36.0491 50.3693 32.8125Z" fill="#DB9406"/>
</svg>
