<svg width="51" height="50" viewBox="0 0 51 50" fill="none" xmlns="http://www.w3.org/2000/svg">
<path d="M0.714946 31.6776C0.799089 31.9954 0.945532 32.2934 1.14577 32.5542C1.34602 32.815 1.59607 33.0335 1.88143 33.1969L6.65998 35.9602V41.4642C6.65998 42.1281 6.92371 42.7647 7.39314 43.2341C7.86258 43.7035 8.49927 43.9672 9.16315 43.9672H14.6676L17.4311 48.7479C17.764 49.3218 18.3107 49.7403 18.9516 49.912C19.5925 50.0837 20.2752 49.9945 20.8505 49.664L25.629 46.9032L30.4101 49.6665C30.9853 49.997 31.6681 50.0862 32.309 49.9145C32.9498 49.7429 33.4965 49.3243 33.8294 48.7504L36.5904 43.9722H42.0949C42.7588 43.9722 43.3955 43.7085 43.8649 43.2391C44.3343 42.7697 44.5981 42.1331 44.5981 41.4692V35.9652L49.3766 33.2019C49.6615 33.0378 49.9113 32.8191 50.1116 32.5584C50.3119 32.2976 50.4588 31.9999 50.5439 31.6824C50.629 31.3648 50.6506 31.0335 50.6075 30.7076C50.5644 30.3816 50.4575 30.0674 50.2928 29.7828L47.5318 25.0021L50.2953 20.224C50.6272 19.6491 50.7172 18.9659 50.5454 18.3247C50.3735 17.6835 49.954 17.1368 49.3791 16.8049L44.6006 14.0416V8.53755C44.6006 7.87372 44.3368 7.23707 43.8674 6.76768C43.398 6.29828 42.7613 6.03457 42.0974 6.03457H36.5929L33.8319 1.25638C33.4993 0.682262 32.9531 0.262974 32.3125 0.0899943C31.995 0.00407041 31.6636 -0.0180497 31.3375 0.0249132C31.0114 0.0678761 30.697 0.17507 30.4126 0.340293L25.629 3.10108L20.8505 0.337789C20.5661 0.172681 20.252 0.0653308 19.926 0.0218942C19.6001 -0.0215424 19.2688 -0.000210437 18.9511 0.084667C18.6334 0.169545 18.3356 0.316297 18.0748 0.516508C17.814 0.716719 17.5952 0.96645 17.4311 1.25138L14.6676 6.03207H9.16315C8.49927 6.03207 7.86258 6.29577 7.39314 6.76517C6.92371 7.23457 6.65998 7.87121 6.65998 8.53504V14.0391L1.88143 16.8049C1.30745 17.1377 0.888914 17.6846 0.717633 18.3255C0.546352 18.9665 0.636307 19.6492 0.967767 20.224L3.72877 25.0021L0.965264 29.7803C0.634583 30.3549 0.544599 31.0369 0.714946 31.6776Z" fill="#DB9406"/>
</svg>
