<svg width="48" height="34" viewBox="0 0 48 34" fill="none" xmlns="http://www.w3.org/2000/svg">
<path d="M13.7272 0.359375C13.61 0.359375 13.483 0.359375 13.3658 0.36914C10.0553 0.447265 5.9928 1.41406 0.934204 3.66016V27.4297C6.8717 24.6172 11.3541 23.8066 15.0162 24.1973C16.3541 24.334 17.5846 24.6367 18.7174 25.0371L14.3131 17.3418C13.4733 17.6836 12.5651 17.8789 11.608 17.8789C7.68127 17.8789 4.47913 14.6758 4.47913 10.75C4.47913 6.82422 7.68127 3.62109 11.608 3.62109C15.5338 3.62109 18.7369 6.82422 18.7369 10.75C18.7369 13.0938 17.5944 15.1738 15.8365 16.4824L21.4323 26.248C22.0377 26.5605 22.6139 26.9023 23.1803 27.2441V3.51367C20.9147 1.78516 18.278 0.583985 14.7819 0.388672C14.4401 0.369141 14.0885 0.359375 13.7272 0.359375ZM34.4303 0.359375C34.069 0.359375 33.7076 0.369141 33.3658 0.388672C29.8697 0.583985 27.2428 1.78516 24.9674 3.51367V27.2441C27.3014 25.8184 29.86 24.5391 33.1315 24.1973C36.7936 23.8066 41.2858 24.6172 47.2135 27.4297V3.66016C42.1647 1.41406 38.1022 0.447265 34.7916 0.36914C34.6647 0.36914 34.5475 0.359375 34.4303 0.359375ZM11.608 5.37891C8.63147 5.37891 6.23694 7.77148 6.23694 10.75C6.23694 13.7285 8.63147 16.1211 11.608 16.1211C14.5865 16.1211 16.9791 13.7285 16.9791 10.75C16.9791 7.77148 14.5865 5.37891 11.608 5.37891ZM11.8326 6.73633H12.1061C9.75256 8.51367 8.70959 10.8477 8.84729 13.5918C6.30237 9.80274 8.97131 6.81445 11.8326 6.73633ZM13.1119 25.9258C9.98694 25.9551 6.10022 26.8828 0.934204 29.4414V33.5918C6.8717 30.7793 11.3541 29.9688 15.0162 30.3594C16.8326 30.5547 18.4244 31.0332 19.8795 31.6582C19.4205 32.2539 18.9713 32.957 18.5221 33.7773H23.7272L20.2115 27.6543C18.5905 26.8438 16.8619 26.2285 14.8307 26.0137C14.2838 25.9551 13.7076 25.9258 13.1119 25.9258ZM34.6842 25.9258C34.2155 25.9355 33.7662 25.9648 33.3268 26.0137C30.0065 26.3652 27.5065 27.7715 24.9674 29.373V29.4023C24.3717 29.2168 23.7662 29.1777 23.1803 29.2852L25.7487 33.7773H29.9674C29.3815 32.9766 28.8151 32.2734 28.2389 31.668C29.7037 31.0332 31.3053 30.5547 33.1315 30.3594C36.7936 29.9688 41.2858 30.7793 47.2135 33.5918V29.4414C42.028 26.873 38.1217 25.9355 34.9869 25.9258H34.6842Z" fill="#DB9406"/>
</svg>
