<svg width="51" height="50" viewBox="0 0 51 50" fill="none" xmlns="http://www.w3.org/2000/svg">
<path d="M50.8919 8.92857C50.8919 6.56057 49.9512 4.28955 48.2768 2.61512C46.6023 0.940686 44.3313 0 41.9633 0H9.82045C7.45244 0 5.18143 0.940686 3.50699 2.61512C1.83256 4.28955 0.891876 6.56057 0.891876 8.92857V41.0714C0.891876 43.4394 1.83256 45.7104 3.50699 47.3849C5.18143 49.0593 7.45244 50 9.82045 50H41.9633C44.3313 50 46.6023 49.0593 48.2768 47.3849C49.9512 45.7104 50.8919 43.4394 50.8919 41.0714V8.92857ZM14.1276 16.0714H37.6562C39.049 16.0714 40.1776 17.2714 40.1776 18.75C40.1776 20.2286 39.049 21.4286 37.6562 21.4286H14.1276C12.7347 21.4286 11.6062 20.2286 11.6062 18.75C11.6062 17.2714 12.7347 16.0714 14.1276 16.0714ZM17.699 26.7857H34.0847C35.4776 26.7857 36.6062 27.9857 36.6062 29.4643C36.6062 30.9429 35.4776 32.1429 34.0847 32.1429H17.699C16.3062 32.1429 15.1776 30.9429 15.1776 29.4643C15.1776 27.9857 16.3062 26.7857 17.699 26.7857Z" fill="#DB9406"/>
</svg>
